<svg xmlns="http://www.w3.org/2000/svg" xmlns:xlink="http://www.w3.org/1999/xlink" width="60px" height="60px" viewBox="0 0 60 60" version="1.1">
    <title>画板备份 13</title>
    <g id="视觉2" stroke="none" stroke-width="1" fill="none" fill-rule="evenodd">
        <g id="画板备份-13" fill="#FF6010">
            <path d="M60,0 L60,60 L0,60 L0,0 L60,0 Z M25.8099366,13.7401257 C23.3806005,11.5001051 19.5942894,11.5590542 17.2364199,13.9170174 L17.2364199,13.9170174 L10.398882,20.7545553 C7.98057305,23.1729603 7.98055154,27.0938851 10.398834,29.5123167 L10.398834,29.5123167 L28.6346419,47.7485249 L28.7591919,47.8634297 C29.5702137,48.5526668 30.7880599,48.5143751 31.5538637,47.7485409 L31.5538637,47.7485409 L32.7121362,46.5891936 L23.7192702,37.6838036 L25.4682704,35.9348035 L34.4611362,44.8401936 L37.1641362,42.1371936 L28.2933443,33.3526778 L30.0423444,31.6036777 L38.9131362,40.3881936 L41.4571362,37.8441936 L32.5864788,29.0589373 L34.335479,27.3099372 L41.1761362,34.084213 L43.1888371,36.0970418 L43.1971362,36.087213 L43.2061362,36.0951936 L44.2298771,35.0725274 C44.2784894,35.0239132 44.3241702,34.9734775 44.3669194,34.9214401 L44.3669194,34.9214401 L49.7028928,29.5895472 C49.7064763,29.5913415 49.7073722,29.5904455 49.7082682,29.5895496 C52.1251447,27.1721385 52.1237127,23.2521753 49.7023864,20.8367506 L49.7023864,20.8367506 L42.7835883,13.9194875 C40.3633073,11.5051179 36.4454171,11.5033496 34.0254172,13.9155348 L34.0254172,13.9155348 L30.0061362,17.929213 L25.9940852,13.9170655 Z M42.7771362,18.290213 L47.5167476,23.0277412 L47.56855,23.0806457 C48.6744453,24.2369813 48.7084702,26.0414254 47.6693362,27.2386041 L47.6693362,27.2386041 L47.6251795,27.288147 L43.4921362,31.416213 L36.5711362,24.495213 L42.7771362,18.290213 Z M36.2667988,16.0544095 C37.4799427,14.9007854 39.4034753,14.9189147 40.5979553,16.1104773 L40.5979553,16.1104773 L40.8501362,16.363213 L34.6451362,22.569213 L32.1951362,20.119213 L36.2137432,16.1060649 Z" id="形状结合"/>
        </g>
    </g>
</svg>