<svg xmlns="http://www.w3.org/2000/svg" xmlns:xlink="http://www.w3.org/1999/xlink" fill="none" version="1.1" width="16" height="16" viewBox="0 0 16 16">
  <defs>
    <clipPath id="master_svg0_966_303566">
      <rect x="0" y="0" width="16" height="16" rx="0"/>
    </clipPath>
  </defs>
  <g clip-path="url(#master_svg0_966_303566)">
    <g>
      <path d="M6.00226,9.19363L3.050605,9.19363C2.665239,9.19363,2.399407,8.83441,2.5365398,8.49926L5.4695,1.329855C5.55078,1.131243,5.75525,1,5.98338,1L10.93263,1C11.32313,1,11.58933,1.368441,11.44193,1.705296L9.73418,5.60893L12.9491,5.60893C13.4219,5.60893,13.6742,6.12795,13.3623,6.45883L5.48013,14.823C5.09697,15.2297,4.38655,14.8773,4.53523,14.3544L6.00226,9.19363ZM6.36233,2.0244L3.84847,8.1694L6.71653,8.1694C7.0774,8.16944,7.34045,8.48765,7.24819,8.81255L6.19751,12.5093L11.73489,6.63315L8.91634,6.63315C8.52584,6.63315,8.25964,6.26471,8.40704,5.92785L10.11478,2.02423L6.36233,2.02423L6.36233,2.0244Z" fill="#F6A046" fill-opacity="1"/>
    </g>
  </g>
</svg>