<svg xmlns="http://www.w3.org/2000/svg" xmlns:xlink="http://www.w3.org/1999/xlink" fill="none" version="1.1" width="20" height="20" viewBox="0 0 20 20"><defs><clipPath id="master_svg0_6250_094917"><rect x="0" y="0" width="20" height="20" rx="0"/></clipPath></defs><g clip-path="url(#master_svg0_6250_094917)"><g/><g><path d="M16.24454453125,4.81597453125Q16.35004453125,4.71048553125,16.407144531249997,4.57265753125Q16.46424453125,4.43482853125,16.46424453125,4.28564453125Q16.46424453125,4.21177603125,16.44984453125,4.13932653125Q16.43534453125,4.06687753125,16.407144531249997,3.99863153125Q16.37884453125,3.93038653125,16.33784453125,3.86896653125Q16.29674453125,3.80754753125,16.24454453125,3.75531453125Q16.19234453125,3.70308153125,16.13084453125,3.66204253125Q16.06944453125,3.62100353125,16.001244531250002,3.59273453125Q15.93294453125,3.56446653125,15.86054453125,3.55005553125Q15.78804453125,3.53564453125,15.71424453125,3.53564453125Q15.56504453125,3.53564453125,15.42724453125,3.59273453125Q15.28934453125,3.64982553125,15.18384453125,3.75531453125L15.18344453125,3.75577653125L3.75577653125,15.18344453125L3.75531453125,15.18384453125Q3.64982553125,15.28934453125,3.59273453125,15.42724453125Q3.53564453125,15.56504453125,3.53564453125,15.71424453125Q3.53564453125,15.78804453125,3.55005553125,15.86054453125Q3.56446653125,15.93294453125,3.59273453125,16.001244531250002Q3.62100353125,16.06944453125,3.66204253125,16.13084453125Q3.70308153125,16.19234453125,3.75531453125,16.24454453125Q3.80754753125,16.29674453125,3.86896653125,16.33784453125Q3.93038653125,16.37884453125,3.99863153125,16.407144531249997Q4.06687753125,16.43534453125,4.13932653125,16.44984453125Q4.21177603125,16.46424453125,4.28564453125,16.46424453125Q4.43482853125,16.46424453125,4.57265753125,16.407144531249997Q4.71048553125,16.35004453125,4.81597453125,16.24454453125L4.81643653125,16.244044531249997L16.244044531249997,4.81643653125L16.24454453125,4.81597453125L16.24454453125,4.81597453125Z" fill-rule="evenodd" fill="#999999" fill-opacity="1"/></g><g transform="matrix(-1,0,0,1,31.4287109375,0)"><path d="M27.67325546875,4.81597453125Q27.77875546875,4.71048553125,27.835855468749997,4.57265753125Q27.89295546875,4.43482853125,27.89295546875,4.28564453125Q27.89295546875,4.21177603125,27.87855546875,4.13932653125Q27.86405546875,4.06687753125,27.835855468749997,3.99863153125Q27.80755546875,3.93038653125,27.76655546875,3.86896653125Q27.72545546875,3.80754753125,27.67325546875,3.75531453125Q27.62105546875,3.70308153125,27.55955546875,3.66204253125Q27.49815546875,3.62100353125,27.429955468750002,3.59273453125Q27.36165546875,3.56446653125,27.28925546875,3.55005553125Q27.21675546875,3.53564453125,27.14295546875,3.53564453125Q26.993755468750003,3.53564453125,26.85595546875,3.59273453125Q26.718055468750002,3.64982553125,26.61255546875,3.75531453125L26.61215546875,3.75577653125L15.18448746875,15.18344453125L15.18402546875,15.18384453125Q15.07853646875,15.28934453125,15.02144546875,15.42724453125Q14.96435546875,15.56504453125,14.96435546875,15.71424453125Q14.96435546875,15.78804453125,14.978766468749999,15.86054453125Q14.99317746875,15.93294453125,15.02144546875,16.001244531250002Q15.04971446875,16.06944453125,15.09075346875,16.13084453125Q15.13179246875,16.19234453125,15.18402546875,16.24454453125Q15.23625846875,16.29674453125,15.29767746875,16.33784453125Q15.35909746875,16.37884453125,15.42734246875,16.407144531249997Q15.49558846875,16.43534453125,15.56803746875,16.44984453125Q15.64048696875,16.46424453125,15.71435546875,16.46424453125Q15.86353946875,16.46424453125,16.00136846875,16.407144531249997Q16.13919646875,16.35004453125,16.24468546875,16.24454453125L16.24514746875,16.244044531249997L27.672755468749997,4.81643653125L27.67325546875,4.81597453125L27.67325546875,4.81597453125Z" fill-rule="evenodd" fill="#999999" fill-opacity="1"/></g></g></svg>