<svg xmlns="http://www.w3.org/2000/svg" xmlns:xlink="http://www.w3.org/1999/xlink" fill="none" version="1.1" width="32" height="16" viewBox="0 0 32 16">
  <defs>
    <linearGradient x1="0" y1="0.5" x2="1" y2="0.5" id="master_svg0_1_6585">
      <stop offset="0%" stop-color="#FFF7EA" stop-opacity="1"/>
      <stop offset="100%" stop-color="#FFECCA" stop-opacity="1"/>
    </linearGradient>
  </defs>
  <g>
    <rect x="0" y="0" width="32" height="16" rx="4" fill="url(#master_svg0_1_6585)" fill-opacity="1"/>
    <g>
      <path d="M6.41688,5.96106L7.32644,5.96106L7.32644,13.9476L6.41688,13.9476L6.41688,5.96106ZM6.87025,5.96106L13.54319,5.96106L13.54319,9.03456L6.87025,9.03456L6.87025,8.246690000000001L12.6475,8.246690000000001L12.6475,6.74894L6.87025,6.74894L6.87025,5.96106ZM6.917120000000001,10.18412L13.9825,10.18412L13.9825,13.8923L13.06075,13.8923L13.06075,10.99356L6.917120000000001,10.99356L6.917120000000001,10.18412ZM6.95444,12.6064L13.3585,12.6064L13.3585,13.4086L6.95444,13.4086L6.95444,12.6064ZM4.89475,4.07444L15.0985,4.07444L15.0985,6.20988L14.1535,6.20988L14.1535,4.9232499999999995L5.80244,4.9232499999999995L5.80244,6.20988L4.89475,6.20988L4.89475,4.07444ZM9.372620000000001,3.05725L10.2775,2.85888Q10.46012,3.18812,10.62119,3.58956Q10.782250000000001,3.99081,10.84487,4.2741299999999995L9.9025,4.501189999999999Q9.837060000000001,4.22256,9.687809999999999,3.81063Q9.53856,3.3985,9.372620000000001,3.05725ZM16.816200000000002,4.99788L27.2279,4.99788L27.2279,5.87012L16.816200000000002,5.87012L16.816200000000002,4.99788ZM20.5714,7.79481L25.3667,7.79481L25.3667,8.6695L20.5714,8.6695L20.5714,7.79481ZM25.1206,7.79481L26.0588,7.79481Q26.0588,7.79481,26.0528,7.87563Q26.0468,7.95625,26.0444,8.05713Q26.0421,8.15781,26.0254,8.22925Q25.9075,9.9325,25.7755,10.98644Q25.6435,12.0404,25.4768,12.6064Q25.3101,13.1725,25.0681,13.4117Q24.8631,13.6381,24.6213,13.7211Q24.3796,13.8042,24.0332,13.8302Q23.7124,13.8563,23.1631,13.8417Q22.6139,13.8271,22.0066,13.7931Q21.9946,13.5921,21.9096,13.3416Q21.8249,13.0911,21.6852,12.9115Q22.3337,12.9668,22.9037,12.9826Q23.4738,12.9981,23.7179,12.9981Q23.9172,12.9981,24.0479,12.9719Q24.1786,12.9454,24.2886,12.8567Q24.4759,12.6861,24.6248,12.1473Q24.7739,11.6082,24.8965,10.58444Q25.0191,9.5605,25.1206,7.94894L25.1206,7.79481ZM20.1074,5.51631L21.0972,5.51631Q21.0492,6.457,20.9519,7.42938Q20.8546,8.40156,20.6335,9.34019Q20.4126,10.27881,19.9996,11.1381Q19.5867,11.9974,18.909599999999998,12.7255Q18.2327,13.4536,17.217399999999998,13.9878Q17.1132,13.8154,16.921599999999998,13.6099Q16.7299,13.4046,16.5529,13.2724Q17.5188,12.7904,18.151,12.1225Q18.7832,11.4544,19.1622,10.666Q19.5411,9.87756,19.729,9.01075Q19.9169,8.14375,19.9904,7.25669Q20.0641,6.36944,20.1074,5.51631ZM21.2851,3.184L22.1494,2.8434999999999997Q22.3967,3.26875,22.6463,3.76713Q22.8961,4.2653099999999995,23.0254,4.627940000000001L22.1112,5.02262Q21.9959,4.65531,21.7559,4.13706Q21.5159,3.61862,21.2851,3.184Z" fill="#A57A43" fill-opacity="1"/>
    </g>
  </g>
</svg>