<svg xmlns="http://www.w3.org/2000/svg" xmlns:xlink="http://www.w3.org/1999/xlink" fill="none" version="1.1" width="16" height="16" viewBox="0 0 16 16"><defs><clipPath id="master_svg0_966_303593"><rect x="0" y="0" width="16" height="16" rx="0"/></clipPath></defs><g clip-path="url(#master_svg0_966_303593)"><g><rect x="1.993988037109375" y="3.763671875" width="12.028877258300781" height="9.74379825592041" rx="0.30000001192092896" fill-opacity="0" stroke-opacity="1" stroke="#7ADA85" fill="none" stroke-width="1"/></g><g><path d="M5.679658857421875,7.0380859375C5.359289857421875,7.0380859375,5.099578857421875,7.2619439375,5.099578857421875,7.5380859375C5.099578857421875,7.8142279375,5.359289857421875,8.0380859375,5.679658857421875,8.0380859375C5.679658857421875,8.0380859375,5.679658857421875,7.0380859375,5.679658857421875,7.0380859375C5.679658857421875,7.0380859375,5.679658857421875,7.0380859375,5.679658857421875,7.0380859375ZM10.320298857421875,8.0380859375C10.640668857421876,8.0380859375,10.900378857421874,7.8142279375,10.900378857421874,7.5380859375C10.900378857421874,7.2619439375,10.640668857421876,7.0380859375,10.320298857421875,7.0380859375C10.320298857421875,7.0380859375,10.320298857421875,8.0380859375,10.320298857421875,8.0380859375C10.320298857421875,8.0380859375,10.320298857421875,8.0380859375,10.320298857421875,8.0380859375ZM5.679658857421875,8.0380859375C5.679658857421875,8.0380859375,10.320298857421875,8.0380859375,10.320298857421875,8.0380859375C10.320298857421875,8.0380859375,10.320298857421875,7.0380859375,10.320298857421875,7.0380859375C10.320298857421875,7.0380859375,5.679658857421875,7.0380859375,5.679658857421875,7.0380859375C5.679658857421875,7.0380859375,5.679658857421875,8.0380859375,5.679658857421875,8.0380859375C5.679658857421875,8.0380859375,5.679658857421875,8.0380859375,5.679658857421875,8.0380859375Z" fill="#7ADA85" fill-opacity="1"/></g><g><path d="M5.679658857421875,9.17138671875C5.359289857421875,9.17138671875,5.099578857421875,9.39524471875,5.099578857421875,9.67138671875C5.099578857421875,9.94752871875,5.359289857421875,10.17138671875,5.679658857421875,10.17138671875C5.679658857421875,10.17138671875,5.679658857421875,9.17138671875,5.679658857421875,9.17138671875C5.679658857421875,9.17138671875,5.679658857421875,9.17138671875,5.679658857421875,9.17138671875ZM7.419898857421876,10.17138671875C7.740268857421875,10.17138671875,7.999978857421874,9.94752871875,7.999978857421874,9.67138671875C7.999978857421874,9.39524471875,7.740268857421875,9.17138671875,7.419898857421876,9.17138671875C7.419898857421876,9.17138671875,7.419898857421876,10.17138671875,7.419898857421876,10.17138671875C7.419898857421876,10.17138671875,7.419898857421876,10.17138671875,7.419898857421876,10.17138671875ZM5.679658857421875,10.17138671875C5.679658857421875,10.17138671875,7.419898857421876,10.17138671875,7.419898857421876,10.17138671875C7.419898857421876,10.17138671875,7.419898857421876,9.17138671875,7.419898857421876,9.17138671875C7.419898857421876,9.17138671875,5.679658857421875,9.17138671875,5.679658857421875,9.17138671875C5.679658857421875,9.17138671875,5.679658857421875,10.17138671875,5.679658857421875,10.17138671875C5.679658857421875,10.17138671875,5.679658857421875,10.17138671875,5.679658857421875,10.17138671875Z" fill="#7ADA85" fill-opacity="1"/></g><g><path d="M9.677894390625,9.17138671875C9.340314390625,9.17138671875,9.066650390625,9.39524471875,9.066650390625,9.67138671875C9.066650390625,9.94752871875,9.340314390625,10.17138671875,9.677894390625,10.17138671875C9.677894390625,10.17138671875,9.677894390625,9.17138671875,9.677894390625,9.17138671875C9.677894390625,9.17138671875,9.677894390625,9.17138671875,9.677894390625,9.17138671875ZM10.289140390625,10.17138671875C10.626720390625,10.17138671875,10.900380390625,9.94752871875,10.900380390625,9.67138671875C10.900380390625,9.39524471875,10.626720390625,9.17138671875,10.289140390625,9.17138671875C10.289140390625,9.17138671875,10.289140390625,10.17138671875,10.289140390625,10.17138671875C10.289140390625,10.17138671875,10.289140390625,10.17138671875,10.289140390625,10.17138671875ZM9.677894390625,10.17138671875C9.677894390625,10.17138671875,10.289140390625,10.17138671875,10.289140390625,10.17138671875C10.289140390625,10.17138671875,10.289140390625,9.17138671875,10.289140390625,9.17138671875C10.289140390625,9.17138671875,9.677894390625,9.17138671875,9.677894390625,9.17138671875C9.677894390625,9.17138671875,9.677894390625,10.17138671875,9.677894390625,10.17138671875C9.677894390625,10.17138671875,9.677894390625,10.17138671875,9.677894390625,10.17138671875Z" fill="#7ADA85" fill-opacity="1"/></g><g transform="matrix(0,1,-1,0,8.0318603515625,-4.7681884765625)"><path d="M6.7702694140625,1.6318359375C6.5657894140625,1.6318359375,6.4000244140625,1.8556939375,6.4000244140625,2.1318359375C6.4000244140625,2.4079779375,6.5657894140625,2.6318359375,6.7702694140625,2.6318359375C6.7702694140625,2.6318359375,6.7702694140625,1.6318359375,6.7702694140625,1.6318359375C6.7702694140625,1.6318359375,6.7702694140625,1.6318359375,6.7702694140625,1.6318359375ZM8.2512444140625,2.6318359375C8.4557244140625,2.6318359375,8.6214944140625,2.4079779375,8.6214944140625,2.1318359375C8.6214944140625,1.8556939375,8.4557244140625,1.6318359375,8.2512444140625,1.6318359375C8.2512444140625,1.6318359375,8.2512444140625,2.6318359375,8.2512444140625,2.6318359375C8.2512444140625,2.6318359375,8.2512444140625,2.6318359375,8.2512444140625,2.6318359375ZM6.7702694140625,2.6318359375C6.7702694140625,2.6318359375,8.2512444140625,2.6318359375,8.2512444140625,2.6318359375C8.2512444140625,2.6318359375,8.2512444140625,1.6318359375,8.2512444140625,1.6318359375C8.2512444140625,1.6318359375,6.7702694140625,1.6318359375,6.7702694140625,1.6318359375C6.7702694140625,1.6318359375,6.7702694140625,2.6318359375,6.7702694140625,2.6318359375C6.7702694140625,2.6318359375,6.7702694140625,2.6318359375,6.7702694140625,2.6318359375Z" fill="#7ADA85" fill-opacity="1"/></g><g transform="matrix(0,1,-1,0,12.29852294921875,-9.03485107421875)"><path d="M11.03693201171875,1.6318359375C10.83245201171875,1.6318359375,10.66668701171875,1.8556939375,10.66668701171875,2.1318359375C10.66668701171875,2.4079779375,10.83245201171875,2.6318359375,11.03693201171875,2.6318359375C11.03693201171875,2.6318359375,11.03693201171875,1.6318359375,11.03693201171875,1.6318359375C11.03693201171875,1.6318359375,11.03693201171875,1.6318359375,11.03693201171875,1.6318359375ZM12.51790701171875,2.6318359375C12.72238701171875,2.6318359375,12.88815701171875,2.4079779375,12.88815701171875,2.1318359375C12.88815701171875,1.8556939375,12.72238701171875,1.6318359375,12.51790701171875,1.6318359375C12.51790701171875,1.6318359375,12.51790701171875,2.6318359375,12.51790701171875,2.6318359375C12.51790701171875,2.6318359375,12.51790701171875,2.6318359375,12.51790701171875,2.6318359375ZM11.03693201171875,2.6318359375C11.03693201171875,2.6318359375,12.51790701171875,2.6318359375,12.51790701171875,2.6318359375C12.51790701171875,2.6318359375,12.51790701171875,1.6318359375,12.51790701171875,1.6318359375C12.51790701171875,1.6318359375,11.03693201171875,1.6318359375,11.03693201171875,1.6318359375C11.03693201171875,1.6318359375,11.03693201171875,2.6318359375,11.03693201171875,2.6318359375C11.03693201171875,2.6318359375,11.03693201171875,2.6318359375,11.03693201171875,2.6318359375Z" fill="#7ADA85" fill-opacity="1"/></g></g><script xmlns=""/></svg>