<svg xmlns="http://www.w3.org/2000/svg" xmlns:xlink="http://www.w3.org/1999/xlink" fill="none" version="1.1" width="16" height="16" viewBox="0 0 16 16"><defs><clipPath id="master_svg0_966_303596"><rect x="0" y="0" width="16" height="16" rx="0"/></clipPath></defs><g clip-path="url(#master_svg0_966_303596)"><g><path d="M14.5545125,8.000218060569763Q14.5545125,8.161128060569762,14.5466125,8.321838060569764Q14.5387125,8.482548060569762,14.5229125,8.642678060569764Q14.5071125,8.802818060569763,14.4835125,8.961978060569763Q14.4599125,9.121138060569763,14.4285125,9.278958060569764Q14.3971125,9.436768060569763,14.3580125,9.592858060569764Q14.3189125,9.748938060569763,14.2722125,9.902918060569764Q14.2255125,10.056898060569763,14.1713125,10.208398060569763Q14.1171125,10.359888060569762,14.0555125,10.508548060569764Q13.9940125,10.657208060569763,13.9252125,10.802668060569763Q13.8564125,10.948118060569763,13.7805125,11.090028060569763Q13.7047125,11.231938060569764,13.6219125,11.369948060569763Q13.5392125,11.507938060569764,13.4498125,11.641738060569763Q13.3604125,11.775538060569763,13.2646125,11.904738060569763Q13.1687125,12.034038060569763,13.0666125,12.158438060569763Q12.9646125,12.282738060569763,12.8565125,12.402038060569764Q12.7485125,12.521238060569763,12.6347125,12.635038060569762Q12.5209125,12.748838060569764,12.4017125,12.856838060569762Q12.2824125,12.964938060569763,12.1581125,13.066938060569763Q12.0337125,13.169038060569763,11.9044125,13.264938060569763Q11.7752125,13.360738060569764,11.6414125,13.450138060569763Q11.5076125,13.539538060569763,11.3696225,13.622238060569764Q11.2316125,13.705038060569763,11.0897025,13.780838060569764Q10.9477925,13.856738060569763,10.8023425,13.925538060569764Q10.6568825,13.994338060569763,10.5082225,14.055838060569764Q10.3595625,14.117438060569762,10.2080725,14.171638060569764Q10.0565725,14.225838060569764,9.9025925,14.272538060569763Q9.7486125,14.319238060569763,9.5925325,14.358338060569762Q9.4364425,14.397438060569764,9.2786325,14.428838060569763Q9.1208125,14.460238060569763,8.9616525,14.483838060569763Q8.8024925,14.507438060569763,8.6423625,14.523238060569764Q8.482222499999999,14.539038060569764,8.3215125,14.546938060569763Q8.160802499999999,14.554838060569763,7.9998925,14.554838060569763Q7.8389925,14.554838060569763,7.6782825,14.546938060569763Q7.5175625,14.539038060569764,7.3574325,14.523238060569764Q7.1973025,14.507438060569763,7.0381425,14.483838060569763Q6.8789725,14.460238060569763,6.7211625,14.428838060569763Q6.5633425,14.397438060569764,6.4072625,14.358338060569762Q6.2511825,14.319238060569763,6.0972025,14.272538060569763Q5.9432225,14.225838060569764,5.7917225,14.171638060569764Q5.6402225,14.117438060569762,5.4915625,14.055838060569764Q5.3429025,13.994338060569763,5.1974525,13.925538060569764Q5.0519925,13.856738060569763,4.9100825,13.780838060569764Q4.7681825,13.705038060569763,4.6301625,13.622238060569764Q4.4921524999999995,13.539538060569763,4.3583625,13.450138060569763Q4.2245725,13.360738060569764,4.0953325,13.264938060569763Q3.9660925,13.169038060569763,3.8417125,13.066938060569763Q3.7173325,12.964938060569763,3.5981025,12.856838060569762Q3.4788825,12.748838060569764,3.3651025,12.635038060569762Q3.2513325,12.521238060569763,3.1432725,12.402038060569764Q3.0352125,12.282738060569763,2.9331325,12.158438060569763Q2.8310525,12.034038060569763,2.7352024999999998,11.904738060569763Q2.6393525,11.775538060569763,2.5499625,11.641738060569763Q2.4605625,11.507938060569764,2.3778425,11.369948060569763Q2.2951195,11.231938060569764,2.2192695000000002,11.090028060569763Q2.1434185,10.948118060569763,2.0746225000000003,10.802668060569763Q2.0058265,10.657208060569763,1.9442504999999999,10.508548060569764Q1.8826745,10.359888060569762,1.8284665,10.208398060569763Q1.7742594999999999,10.056898060569763,1.7275505,9.902918060569764Q1.6808425,9.748938060569763,1.6417455,9.592858060569764Q1.6026485,9.436768060569763,1.5712565,9.278958060569764Q1.5398658,9.121138060569763,1.516256,8.961978060569763Q1.4926462,8.802818060569763,1.4768746,8.642688060569764Q1.4611031,8.482548060569762,1.45320778,8.321838060569764Q1.4453125,8.161128060569762,1.4453125,8.000218060569763Q1.4453125,7.839318060569763,1.45320778,7.678608060569763Q1.4611031,7.5178880605697636,1.4768746,7.357758060569763Q1.4926462,7.197628060569763,1.516256,7.038468060569763Q1.5398658,6.879298060569763,1.5712565,6.721488060569763Q1.6026485,6.563668060569763,1.6417455,6.407588060569763Q1.6808425,6.251508060569763,1.7275505,6.097528060569763Q1.7742594999999999,5.943548060569763,1.8284665,5.792048060569763Q1.8826745,5.640548060569763,1.9442504999999999,5.491888060569763Q2.0058265,5.343228060569763,2.0746225000000003,5.197778060569763Q2.1434185,5.052318060569763,2.2192695000000002,4.910408060569763Q2.2951195,4.768508060569763,2.3778425,4.630488060569763Q2.4605625,4.492478060569763,2.5499625,4.358688060569763Q2.6393525,4.224898060569763,2.7352024999999998,4.095658060569763Q2.8310525,3.966418060569763,2.9331325,3.842038060569763Q3.0352125,3.717658060569763,3.1432725,3.598428060569763Q3.2513325,3.4792080605697633,3.3651025,3.365428060569763Q3.4788825,3.2516580605697634,3.5981025,3.1435980605697633Q3.7173325,3.0355380605697633,3.8417125,2.9334580605697633Q3.9660925,2.8313780605697634,4.0953325,2.735528060569763Q4.2245725,2.6396780605697634,4.3583625,2.550288060569763Q4.4921524999999995,2.460888060569763,4.6301625,2.378168060569763Q4.7681825,2.2954450605697634,4.9100825,2.2195950605697634Q5.0519925,2.1437440605697633,5.1974525,2.0749480605697634Q5.3429025,2.006152060569763,5.4915625,1.944576060569763Q5.6402225,1.8830000605697632,5.7917225,1.8287920605697632Q5.9432225,1.774585060569763,6.0972025,1.7278760605697632Q6.2511825,1.6811680605697632,6.4072625,1.6420710605697633Q6.5633425,1.602974060569763,6.7211625,1.5715820605697632Q6.8789725,1.5401913605697632,7.0381425,1.5165815605697632Q7.1973025,1.4929717605697632,7.3574325,1.477200160569763Q7.5175625,1.4614286605697633,7.6782825,1.4535333405697632Q7.8389925,1.4456380605697632,7.9998925,1.4456380605697632Q8.160802499999999,1.4456380605697632,8.3215125,1.4535333405697632Q8.482222499999999,1.4614286605697633,8.642352500000001,1.477200160569763Q8.8024925,1.4929717605697632,8.9616525,1.5165815605697632Q9.1208125,1.5401913605697632,9.2786325,1.5715820605697632Q9.4364425,1.602974060569763,9.5925325,1.6420710605697633Q9.7486125,1.6811680605697632,9.9025925,1.7278760605697632Q10.0565725,1.774585060569763,10.2080725,1.8287920605697632Q10.3595625,1.8830000605697632,10.5082225,1.944576060569763Q10.6568825,2.006152060569763,10.8023425,2.0749480605697634Q10.9477925,2.1437440605697633,11.0897025,2.2195950605697634Q11.2316125,2.2954450605697634,11.3696225,2.378168060569763Q11.5076125,2.460888060569763,11.6414125,2.550288060569763Q11.7752125,2.6396780605697634,11.9044125,2.735528060569763Q12.0337125,2.8313780605697634,12.1581125,2.9334580605697633Q12.2824125,3.0355380605697633,12.4017125,3.1435980605697633Q12.5209125,3.2516580605697634,12.6347125,3.365428060569763Q12.7485125,3.4792080605697633,12.8565125,3.598428060569763Q12.9646125,3.717658060569763,13.0666125,3.842038060569763Q13.1687125,3.966418060569763,13.2646125,4.095658060569763Q13.3604125,4.224898060569763,13.4498125,4.358688060569763Q13.5392125,4.492478060569763,13.6219125,4.630488060569763Q13.7047125,4.768508060569763,13.7805125,4.910408060569763Q13.8564125,5.052318060569763,13.9252125,5.197778060569763Q13.9940125,5.343228060569763,14.0555125,5.491888060569763Q14.1171125,5.640548060569763,14.1713125,5.792048060569763Q14.2255125,5.943548060569763,14.2722125,6.097528060569763Q14.3189125,6.251508060569763,14.3580125,6.407588060569763Q14.3971125,6.563668060569763,14.4285125,6.721488060569763Q14.4599125,6.879298060569763,14.4835125,7.038468060569763Q14.5071125,7.197628060569763,14.5229125,7.357758060569763Q14.5387125,7.5178880605697636,14.5466125,7.678608060569763Q14.5545125,7.839318060569763,14.5545125,8.000218060569763ZM13.5545125,8.000218060569763Q13.5545125,7.8638680605697635,13.5478125,7.727668060569763Q13.5411125,7.591478060569763,13.5277125,7.455778060569763Q13.5144125,7.320078060569763,13.4943125,7.185198060569763Q13.4743125,7.050318060569763,13.4477125,6.916578060569763Q13.4211125,6.782838060569763,13.3880125,6.650568060569763Q13.3549125,6.518298060569763,13.3153125,6.387808060569763Q13.2757125,6.257328060569763,13.2298125,6.128938060569763Q13.1838125,6.000548060569763,13.1316125,5.874578060569763Q13.0795125,5.748598060569763,13.0212125,5.625328060569763Q12.9629125,5.502068060569763,12.8986125,5.381808060569764Q12.8343125,5.261548060569764,12.7642125,5.144598060569763Q12.6941125,5.027638060569763,12.6184125,4.914258060569763Q12.5426125,4.800878060569763,12.4614125,4.691358060569764Q12.3801125,4.581838060569764,12.2936125,4.476428060569763Q12.2071125,4.371028060569763,12.1156125,4.269988060569763Q12.0240125,4.168958060569763,11.9276125,4.072538060569763Q11.8311125,3.976118060569763,11.7301125,3.884548060569763Q11.6291125,3.792978060569763,11.5237125,3.706468060569763Q11.4182825,3.619968060569763,11.3087625,3.5387380605697634Q11.1992325,3.4575080605697632,11.0858525,3.381758060569763Q10.9724825,3.305998060569763,10.8555225,3.235898060569763Q10.7385625,3.165798060569763,10.6183125,3.101518060569763Q10.4980525,3.037238060569763,10.3747825,2.9789380605697633Q10.2515225,2.9206380605697633,10.1255425,2.868458060569763Q9.9995625,2.816278060569763,9.8711825,2.770338060569763Q9.7427925,2.7243980605697633,9.6123025,2.6848180605697634Q9.4818225,2.6452380605697634,9.3495525,2.612098060569763Q9.2172825,2.578968060569763,9.0835425,2.552368060569763Q8.9498025,2.525768060569763,8.8149225,2.505758060569763Q8.680042499999999,2.4857480605697635,8.544342499999999,2.472388060569763Q8.4086425,2.459018060569763,8.2724425,2.452328060569763Q8.136252500000001,2.445638060569763,7.9998925,2.445638060569763Q7.8635425,2.445638060569763,7.7273425,2.452328060569763Q7.5911525,2.459018060569763,7.4554525,2.472388060569763Q7.3197525,2.4857480605697635,7.1848725,2.505758060569763Q7.0499925,2.525768060569763,6.9162525,2.552368060569763Q6.7825125,2.578968060569763,6.6502425,2.612098060569763Q6.5179725,2.6452380605697634,6.3874825,2.6848180605697634Q6.2570025,2.7243980605697633,6.1286125,2.770338060569763Q6.0002225,2.816278060569763,5.8742525,2.868458060569763Q5.7482725,2.9206380605697633,5.6250025,2.9789380605697633Q5.5017425,3.037238060569763,5.381482500000001,3.101518060569763Q5.261222500000001,3.165798060569763,5.1442725,3.235898060569763Q5.0273125,3.305998060569763,4.9139325,3.381758060569763Q4.8005525,3.4575080605697632,4.6910325,3.5387380605697634Q4.5815125000000005,3.619968060569763,4.4761025,3.706468060569763Q4.3707025,3.792978060569763,4.2696625,3.884548060569763Q4.1686325,3.976118060569763,4.0722125,4.072538060569763Q3.9757925,4.168958060569763,3.8842225,4.269988060569763Q3.7926525,4.371028060569763,3.7061425,4.476428060569763Q3.6196425,4.581838060569764,3.5384125,4.691358060569764Q3.4571825,4.800878060569763,3.3814325,4.914258060569763Q3.3056725,5.027638060569763,3.2355725,5.144598060569763Q3.1654725,5.261548060569764,3.1011925,5.381808060569764Q3.0369124999999997,5.502068060569763,2.9786125,5.625328060569763Q2.9203125,5.748598060569763,2.8681324999999998,5.874578060569763Q2.8159525,6.000548060569763,2.7700125,6.128938060569763Q2.7240725,6.257328060569763,2.6844925,6.387808060569763Q2.6449125,6.518298060569763,2.6117725,6.650568060569763Q2.5786425,6.782838060569763,2.5520424999999998,6.916578060569763Q2.5254425,7.050318060569763,2.5054325,7.185198060569763Q2.4854225000000003,7.320078060569763,2.4720625,7.455778060569763Q2.4586924999999997,7.591478060569763,2.4520025,7.727668060569763Q2.4453125,7.8638680605697635,2.4453125,8.000218060569763Q2.4453125,8.136578060569764,2.4520025,8.272768060569764Q2.4586924999999997,8.408968060569762,2.4720625,8.544668060569762Q2.4854225000000003,8.680368060569762,2.5054325,8.815248060569763Q2.5254425,8.950128060569764,2.5520424999999998,9.083868060569763Q2.5786425,9.217608060569763,2.6117725,9.349878060569763Q2.6449125,9.482148060569763,2.6844925,9.612628060569763Q2.7240725,9.743118060569763,2.7700125,9.871508060569763Q2.8159525,9.999888060569763,2.8681324999999998,10.125868060569763Q2.9203125,10.251848060569763,2.9786125,10.375108060569763Q3.0369124999999997,10.498378060569763,3.1011925,10.618638060569763Q3.1654725,10.738888060569764,3.2355725,10.855848060569762Q3.3056725,10.972808060569763,3.3814325,11.086178060569763Q3.4571825,11.199558060569764,3.5384125,11.309078060569764Q3.6196425,11.418608060569763,3.7061425,11.524038060569763Q3.7926525,11.629438060569763,3.8842225,11.730438060569764Q3.9757925,11.831438060569763,4.0722125,11.927938060569764Q4.1686325,12.024338060569763,4.2696625,12.115938060569762Q4.3707025,12.207438060569762,4.4761025,12.293938060569763Q4.5815125000000005,12.380438060569762,4.6910325,12.461738060569763Q4.8005525,12.542938060569764,4.9139325,12.618638060569763Q5.0273125,12.694438060569762,5.1442725,12.764538060569762Q5.261222500000001,12.834638060569763,5.381482500000001,12.898938060569764Q5.5017425,12.963238060569763,5.6250025,13.021538060569764Q5.7482725,13.079838060569763,5.8742525,13.131938060569762Q6.0002225,13.184138060569763,6.1286125,13.230138060569763Q6.2570025,13.276038060569762,6.3874825,13.315638060569762Q6.5179725,13.355238060569762,6.6502425,13.388338060569763Q6.7825125,13.421438060569763,6.9162525,13.448038060569763Q7.0499925,13.474638060569763,7.1848725,13.494638060569763Q7.3197525,13.514738060569764,7.4554525,13.528038060569763Q7.5911525,13.541438060569764,7.7273425,13.548138060569762Q7.8635425,13.554838060569763,7.9998925,13.554838060569763Q8.136252500000001,13.554838060569763,8.2724425,13.548138060569762Q8.4086425,13.541438060569764,8.544342499999999,13.528038060569763Q8.680042499999999,13.514738060569764,8.8149225,13.494638060569763Q8.9498025,13.474638060569763,9.0835425,13.448038060569763Q9.2172825,13.421438060569763,9.3495525,13.388338060569763Q9.4818225,13.355238060569762,9.6123025,13.315638060569762Q9.7427925,13.276038060569762,9.8711825,13.230138060569763Q9.9995625,13.184138060569763,10.1255425,13.131938060569762Q10.2515225,13.079838060569763,10.3747825,13.021538060569764Q10.4980525,12.963238060569763,10.6183125,12.898938060569764Q10.7385625,12.834638060569763,10.8555225,12.764538060569762Q10.9724825,12.694438060569762,11.0858525,12.618738060569763Q11.1992325,12.542938060569764,11.3087525,12.461738060569763Q11.4182825,12.380438060569762,11.5237125,12.293938060569763Q11.6291125,12.207438060569762,11.7301125,12.115938060569762Q11.8311125,12.024338060569763,11.9276125,11.927938060569764Q12.0240125,11.831438060569763,12.1156125,11.730438060569764Q12.2071125,11.629438060569763,12.2936125,11.524038060569763Q12.3801125,11.418608060569763,12.4614125,11.309088060569763Q12.5426125,11.199558060569764,12.6183125,11.086178060569763Q12.6941125,10.972808060569763,12.7642125,10.855848060569762Q12.8343125,10.738888060569764,12.8986125,10.618638060569763Q12.9629125,10.498378060569763,13.0212125,10.375108060569763Q13.0795125,10.251848060569763,13.1316125,10.125868060569763Q13.1838125,9.999888060569763,13.2298125,9.871508060569763Q13.2757125,9.743118060569763,13.3153125,9.612628060569763Q13.3549125,9.482148060569763,13.3880125,9.349878060569763Q13.4211125,9.217608060569763,13.4477125,9.083868060569763Q13.4743125,8.950128060569764,13.4943125,8.815248060569763Q13.5144125,8.680368060569762,13.5277125,8.544668060569762Q13.5411125,8.408968060569762,13.5478125,8.272768060569764Q13.5545125,8.136578060569764,13.5545125,8.000218060569763Z" fill="#FF6B6B" fill-opacity="1"/></g><g><path d="" fill="#D8D8D8" fill-opacity="1"/><path d="M6.313514742279053,10.25268609375Q5.634114742279053,9.62254309375,5.634114742279053,8.73974609375L4.634114742279053,8.73974609375Q4.634114742279053,10.05895609375,5.6334837422790525,10.98586609375Q6.616704742279053,11.897806093749999,7.999944742279053,11.897806093749999Q9.383194742279052,11.897806093749999,10.366414742279053,10.98586609375Q11.365784742279054,10.05895609375,11.365784742279054,8.73974609375L10.365784742279054,8.73974609375Q10.365784742279054,9.62254309375,9.686384742279053,10.25268609375Q8.990834742279052,10.897806093749999,7.999944742279053,10.897806093749999Q7.009064742279053,10.897806093749999,6.313514742279053,10.25268609375Z" fill-rule="evenodd" fill="#FF6B6B" fill-opacity="1"/></g><g><rect x="5.482259273529053" y="4.805989742279053" width="1.2159262895584106" height="2.2889158725738525" rx="0.6079631447792053" fill="#FF6B6B" fill-opacity="1"/></g><g><rect x="9.1021728515625" y="4.805989742279053" width="1.2159262895584106" height="2.2889158725738525" rx="0.6079631447792053" fill="#FF6B6B" fill-opacity="1"/></g></g><script xmlns=""/></svg>