<svg xmlns="http://www.w3.org/2000/svg" xmlns:xlink="http://www.w3.org/1999/xlink" fill="none" version="1.1" width="18" height="18" viewBox="0 0 18 18"><g style="opacity:0.5;"><g><ellipse cx="9" cy="9" rx="9" ry="9" fill="#E8F8EA" fill-opacity="1"/></g><g><ellipse cx="9" cy="9" rx="5.5" ry="5.5" fill="#22C134" fill-opacity="1"/></g><g><path d="M12.7626953625,7.553802490234375C12.7626953625,7.694412230234375,12.7034897625,7.828523220234375,12.5995898625,7.923264500234375L8.6278927625,11.544857990234375C8.3952221625,11.757018590234374,8.0381281625,11.753224390234376,7.8100178625000005,11.536168090234375L5.6563513025,9.486864790234375C5.5571215745,9.392443690234375,5.5009765625,9.261518190234375,5.5009765625,9.124603290234376C5.5009765625,8.848460890234374,5.7248341725,8.624603290234376,6.0009765625,8.624603290234376C6.1292887325,8.624603290234376,6.2526900125000004,8.673932290234376,6.3456447125,8.762382490234375L8.2294275625,10.554880190234375L11.9258007625,7.184340480234375C12.0179028625,7.100357175234375,12.1380519625,7.053802490234375,12.2626953625,7.053802490234375C12.5388378625,7.053802490234375,12.7626953625,7.277660100234375,12.7626953625,7.553802490234375Z" fill-rule="evenodd" fill="#FFFFFF" fill-opacity="1"/></g></g></svg>